<?xml version="1.0" standalone="no"?>
<!DOCTYPE svg PUBLIC "-//W3C//DTD SVG 20010904//EN"
 "http://www.w3.org/TR/2001/REC-SVG-20010904/DTD/svg10.dtd">
<svg version="1.0" xmlns="http://www.w3.org/2000/svg"
 width="250.000000pt" height="250.000000pt" viewBox="0 0 250.000000 250.000000"
 preserveAspectRatio="xMidYMid meet">
<metadata>
Created by potrace 1.14, written by Peter Selinger 2001-2017
</metadata>
<g transform="translate(0.000000,250.000000) scale(0.100000,-0.100000)"
fill="#000000" stroke="none">
<path d="M1075 2189 c-5 -5 -41 -39 -79 -74 -38 -36 -66 -65 -62 -65 4 0 -6
-13 -21 -29 -47 -48 -82 -95 -83 -108 0 -7 -5 -13 -12 -13 -6 0 -9 -3 -5 -6 3
-3 -5 -18 -18 -32 -13 -14 -22 -29 -20 -33 3 -4 -2 -12 -10 -19 -8 -7 -15 -19
-15 -26 0 -8 -4 -14 -9 -14 -9 0 -26 -48 -23 -62 1 -5 -2 -8 -8 -8 -5 0 -10
-9 -10 -20 0 -11 -5 -20 -11 -20 -6 0 -9 -6 -6 -13 3 -7 -1 -21 -9 -31 -7 -11
-11 -23 -8 -27 3 -5 1 -9 -3 -9 -8 0 -12 -15 -15 -57 -1 -7 -5 -13 -9 -13 -4
0 -6 -11 -4 -25 1 -14 -2 -25 -8 -25 -5 0 -7 -9 -4 -20 3 -11 1 -23 -4 -26 -6
-3 -7 -14 -4 -25 4 -10 2 -19 -3 -19 -6 0 -8 -9 -5 -20 3 -11 2 -28 -2 -37 -5
-10 -8 -21 -7 -24 1 -8 2 -159 1 -179 -2 -22 5 -44 16 -52 6 -5 6 -8 -1 -8 -9
0 -9 -11 -3 -37 4 -21 8 -39 9 -40 0 -2 0 -4 1 -5 0 -2 2 -16 5 -33 5 -36 9
-55 16 -75 3 -8 18 -53 33 -100 15 -47 38 -109 51 -138 13 -29 24 -57 24 -61
0 -5 5 -11 10 -13 6 -2 12 -13 15 -26 2 -12 13 -35 24 -51 11 -16 25 -40 31
-55 5 -14 14 -26 20 -26 5 0 9 -3 8 -7 -2 -7 34 -74 50 -93 5 -7 302 -7 302 0
0 3 19 6 43 7 23 1 58 5 77 9 19 3 51 7 72 8 20 0 34 4 31 9 -3 6 45 12 70 8
4 0 7 3 7 9 0 5 15 10 34 10 19 0 38 5 41 10 4 6 10 8 15 5 5 -3 11 -1 15 4 3
6 12 8 19 5 8 -3 17 0 21 5 3 6 11 9 16 6 5 -4 9 -2 9 2 0 5 12 10 26 11 15 1
33 7 40 13 8 6 14 8 14 4 0 -4 6 -2 13 4 8 6 22 12 33 15 40 9 64 19 64 27 0
5 3 8 8 7 20 -5 52 15 54 35 2 30 4 39 13 60 4 9 5 24 2 32 -4 8 -2 17 3 20 5
3 7 12 4 20 -3 7 -1 23 6 34 7 15 7 21 0 21 -7 0 -7 7 1 21 9 17 8 20 -2 14
-9 -6 -10 -4 -3 6 11 18 14 309 3 309 -5 0 -4 11 1 25 6 15 6 25 0 25 -5 0 -9
8 -9 18 0 60 -4 92 -10 92 -4 0 -7 20 -6 44 0 24 -3 42 -7 40 -5 -3 -9 2 -9
10 -1 9 -3 19 -4 24 -1 4 -5 26 -10 50 -4 23 -12 42 -17 42 -6 0 -8 7 -4 15 3
8 2 15 -2 15 -4 0 -14 21 -21 48 -8 26 -18 50 -23 53 -5 3 -10 16 -11 27 -1
12 -4 22 -8 22 -5 0 -29 43 -34 60 -4 16 -41 70 -47 70 -5 0 -8 4 -8 10 0 10
-20 37 -52 72 -10 10 -16 18 -13 18 6 0 -119 124 -152 151 -77 62 -278 179
-309 179 -8 0 -14 5 -14 11 0 6 -6 9 -14 6 -7 -3 -19 0 -25 6 -6 6 -16 12 -23
13 -7 1 -20 5 -28 8 -8 3 -19 1 -25 -5z m509 -711 c11 -3 25 -13 30 -23 6 -11
17 -25 24 -33 6 -7 13 -24 14 -38 0 -13 1 -30 2 -36 1 -7 6 -16 11 -20 6 -5 5
-8 -2 -8 -7 0 -13 -9 -13 -19 0 -11 -5 -23 -12 -27 -18 -11 -258 -11 -258 1 0
6 -3 6 -8 -1 -4 -5 -25 -11 -47 -12 -50 -1 -105 -10 -125 -19 -8 -3 -28 -7
-44 -8 -16 -2 -31 -7 -35 -11 -3 -5 -22 -10 -41 -12 -19 -1 -44 -6 -55 -11
-131 -57 -148 -61 -160 -43 -7 9 -13 21 -13 26 0 5 -5 12 -10 15 -15 9 -22 71
-9 72 8 0 8 2 -1 6 -6 2 -9 10 -5 16 4 6 8 23 9 36 3 24 10 31 31 34 5 0 14 7
21 14 8 7 18 11 23 8 5 -4 9 -1 9 4 0 6 9 11 19 11 11 0 23 5 26 11 4 6 13 8
20 5 8 -3 19 1 25 9 6 8 18 11 26 8 8 -3 14 -1 14 4 0 5 6 10 13 10 45 3 67 9
67 17 0 5 2 7 5 4 3 -3 31 0 63 7 53 11 340 13 386 3z"/>
</g>
</svg>
